<svg id="_x33_0" enable-background="new 0 0 64 64" height="512" viewBox="0 0 64 64" width="512" xmlns="http://www.w3.org/2000/svg"><g><g><g><path d="m4.04 42.85c1.88-5.3 6.32-9.44 11.96-10.85v6 .34c0 3.63 1.44 7.1 4 9.66 1.28-1.28 2.28-2.79 2.96-4.43s1.04-3.41 1.04-5.23v-.34-6c4.4.63 8.23 3.32 10.31 7.25l1.82 3.44 1.78 3.37-7.91 4.94v1 10h-20v-11.06l-6.85-4.28c.15-1.32.45-2.59.89-3.81z" fill="#ff826e"/></g><g><path d="m24 38v.34c0 1.82-.36 3.59-1.04 5.23s-1.68 3.15-2.96 4.43c-2.56-2.56-4-6.03-4-9.66v-.34z" fill="#ffeaa7"/></g><g><path d="m16 32c-5.64 1.41-10.08 5.55-11.96 10.85-1.29-1.1-2.04-2.72-2.04-4.44 0-1.21.37-2.39 1.07-3.38l3.41-4.87c.99-1.4 1.52-3.08 1.52-4.8 0-.9-.14-1.79-.43-2.65l-.94-2.81c-.42-1.26-.63-2.58-.63-3.9s.21-2.64.63-3.9l.21-.61c.94-2.83 2.74-5.21 5.05-6.87s5.13-2.62 8.11-2.62c5.97 0 11.27 3.82 13.16 9.49l.21.61c.42 1.26.63 2.58.63 3.9s-.21 2.64-.63 3.9l-.94 2.81c-.29.86-.43 1.75-.43 2.65 0 1.72.53 3.4 1.52 4.8l3.41 4.87c.7.99 1.07 2.17 1.07 3.38 0 1.64-.69 3.19-1.87 4.28l-1.82-3.44c-2.08-3.93-5.91-6.62-10.31-7.25l-.71-2.14c2.69-.59 4.71-2.99 4.71-5.86v-6.68c0-.69-.22-1.34-.61-1.88s-.94-.96-1.6-1.18c-1.23-.41-2.24-1.22-2.9-2.26h-7.89c-1.66 0-3 1.34-3 3v9c0 2.87 2.02 5.27 4.71 5.86z" fill="#656d78"/></g><g><path d="m60 34h-9l-3.59 3.59c-.26.26-.62.41-1 .41-.78 0-1.41-.63-1.41-1.41v-2.59h-5c-1.1 0-2-.9-2-2v-12c0-1.1.9-2 2-2h20c1.1 0 2 .9 2 2v12c0 1.1-.9 2-2 2z" fill="#e6e9ed"/></g><g><path d="m39.96 49.93 7.04-4.93v-1c0-1.1.9-2 2-2h1l1.17-1.17c.53-.53 1.25-.83 2-.83.78 0 1.49.32 2 .83s.83 1.22.83 2c0 .75-.3 1.47-.83 2l-11.08 11.08c-1.34 1.34-3.15 2.09-5.05 2.09-2.56 0-4.99-1.14-6.63-3.11l-2.41-2.89v-1l7.91-4.94z" fill="#f0d0b4"/></g><g><path d="m10 50.94v11.06h-8l1.09-14.66c.02-.23.04-.45.06-.68z" fill="#f0d0b4"/></g><g><path d="m24 32v6h-8v-6l.71-2.14c.41.09.85.14 1.29.14h4c.44 0 .88-.05 1.29-.14z" fill="#f0d0b4"/></g><g><path d="m28 17.32v6.68c0 2.87-2.02 5.27-4.71 5.86-.41.09-.85.14-1.29.14h-4c-.44 0-.88-.05-1.29-.14-2.69-.59-4.71-2.99-4.71-5.86v-9c0-1.66 1.34-3 3-3h7.89c.66 1.04 1.67 1.85 2.9 2.26.66.22 1.21.64 1.6 1.18s.61 1.19.61 1.88z" fill="#f0d0b4"/></g></g><g><circle cx="16" cy="18" r="1"/><circle cx="24" cy="18" r="1"/><path d="m17 27h4c2.206 0 4-1.794 4-4h-2c0 1.103-.897 2-2 2h-4z"/><path d="m20.707 14.293c-1.101-1.101-1.707-2.565-1.707-4.122v-1.171h-2v1.171c0 2.091.814 4.057 2.293 5.536z"/><path d="m53.172 39c-1.023 0-1.984.398-2.707 1.122l-.879.878h-.586c-1.654 0-3 1.346-3 3v.479l-5.685 3.979-2.964-5.599c1.053-1.234 1.649-2.808 1.649-4.452 0-1.42-.431-2.786-1.247-3.949l-3.417-4.87c-.874-1.246-1.336-2.709-1.336-4.23 0-.795.127-1.579.379-2.33l.937-2.814c.454-1.362.684-2.78.684-4.214s-.23-2.852-.684-4.213l-.206-.617c-2.027-6.083-7.698-10.17-14.111-10.17-6.411 0-12.082 4.087-14.11 10.171l-.204.615c-.455 1.362-.685 2.78-.685 4.214s.23 2.852.684 4.213l.938 2.815c.251.751.378 1.535.378 2.33 0 1.521-.462 2.984-1.336 4.231l-3.417 4.87c-.816 1.163-1.247 2.528-1.247 3.948 0 1.78.682 3.452 1.886 4.721-.417 1.322-.691 2.706-.797 4.134l-1.166 15.738h30.077v-8.238l.644.772c1.835 2.203 4.532 3.466 7.399 3.466 2.174 0 4.218-.847 5.755-2.384l11.081-11.081c.723-.723 1.121-1.684 1.121-2.706 0-2.112-1.718-3.829-3.828-3.829zm-50.172-.593c0-1.007.306-1.976.884-2.8l3.417-4.87c1.111-1.584 1.699-3.445 1.699-5.379 0-1.011-.162-2.008-.48-2.962l-.938-2.815c-.387-1.157-.582-2.362-.582-3.581s.195-2.424.582-3.582l.204-.615c1.756-5.265 6.664-8.803 12.214-8.803s10.458 3.538 12.213 8.803l.206.616c.386 1.157.581 2.362.581 3.581s-.195 2.424-.582 3.582l-.937 2.813c-.319.955-.481 1.952-.481 2.963 0 1.935.588 3.795 1.699 5.379l3.417 4.87c.578.825.884 1.793.884 2.8 0 .881-.262 1.722-.701 2.466l-1.107-2.091c-2.121-4.006-5.991-6.813-10.426-7.644l-.21-.629c2.598-1.024 4.444-3.552 4.444-6.509v-6.675c0-1.821-1.161-3.432-2.889-4.008-1.861-.621-3.111-2.356-3.111-4.317h-2c0 2.823 1.8 5.32 4.479 6.214.91.303 1.521 1.152 1.521 2.111v6.675c0 2.757-2.243 5-5 5h-4c-2.757 0-5-2.243-5-5v-9c0-1.103.897-2 2-2v-2c-2.206 0-4 1.794-4 4v9c0 2.957 1.846 5.485 4.443 6.51l-.226.679c-5.175 1.465-9.308 5.09-11.486 9.789-.473-.762-.731-1.646-.731-2.571zm15-7.407h4c.203 0 .404-.013.603-.031l.397 1.192v4.839h-6v-4.839l.397-1.192c.199.018.4.031.603.031zm4.971 8c-.142 2.787-1.171 5.409-2.971 7.526-1.8-2.117-2.829-4.74-2.971-7.526zm-18.96 9.381 4.989 3.118v9.501h-5.923zm24.989 12.619h-18v-18h-2v6.14l-4.774-2.984c.91-5.959 5.062-10.901 10.774-12.822v5.009c0 3.916 1.524 7.596 4.293 10.364l.707.707.707-.707c2.769-2.768 4.293-6.448 4.293-10.364v-5.12c3.586.852 6.685 3.208 8.425 6.494l3.167 5.983-5.592 3.495v-6.195h-2zm25.465-16.878-11.081 11.08c-1.16 1.159-2.701 1.798-4.341 1.798-2.271 0-4.408-1.001-5.862-2.746l-2.181-2.616v-.083l6.53-4.082 1.134 2.142-2.237 1.566 1.146 1.639 10.427-7.299v-1.521c0-.551.448-1 1-1h1.414l1.465-1.465c.341-.34.811-.535 1.293-.535 1.008 0 1.828.82 1.828 1.829 0 .488-.19.947-.535 1.293z"/><path d="m54.047 21h-3v10h2v-4h1c.552 0 1 .449 1 1v3h2v-3c0-.771-.301-1.468-.78-2 .48-.532.78-1.229.78-2 0-1.654-1.346-3-3-3zm-1 4v-2h1c.552 0 1 .449 1 1s-.448 1-1 1z"/><path d="m47 25h-2v-4h-2v10h2v-4h2v4h2v-10h-2z"/><path d="m60 17h-20c-1.654 0-3 1.346-3 3v12c0 1.654 1.346 3 3 3h4v1.586c0 1.331 1.083 2.414 2.414 2.414.637 0 1.259-.258 1.707-.707l3.293-3.293h8.586c1.654 0 3-1.346 3-3v-12c0-1.654-1.346-3-3-3zm1 15c0 .551-.448 1-1 1h-9.414l-3.88 3.879c-.235.237-.706.045-.706-.293v-3.586h-6c-.552 0-1-.449-1-1v-12c0-.551.448-1 1-1h20c.552 0 1 .449 1 1z"/></g></g></svg>